<svg xmlns="http://www.w3.org/2000/svg" width="694" height="414" fill-rule="evenodd" xmlns:v="https://vecta.io/nano"><g fill="#734b94"><ellipse cx="315.7" cy="74.5" rx="2.6" ry="2.7"/><ellipse cx="379.3" cy="173" rx="2.6" ry="2.7"/><ellipse cx="337.3" cy="250" rx="2.6" ry="2.7"/><ellipse cx="343.4" cy="245.4" rx="2" ry="2.1"/><ellipse cx="440.5" cy="156.5" rx="2" ry="2.1"/><ellipse cx="309.8" cy="174.5" rx="2" ry="2.1"/><ellipse cx="217.1" cy="201.1" rx="2" ry="2.1"/><ellipse cx="313.1" cy="307.8" rx="2" ry="2.1"/><ellipse cx="254" cy="128.7" rx="2" ry="2.1"/><ellipse cx="222.9" cy="322.9" rx="2" ry="2.1"/><ellipse cx="101.1" cy="133.1" rx="2.6" ry="2.7"/><ellipse cx="164.7" cy="231.6" rx="2.6" ry="2.7"/><ellipse cx="122.7" cy="308.6" rx="2.6" ry="2.7"/><ellipse cx="128.9" cy="304" rx="2" ry="2.1"/><ellipse cx="226" cy="215.1" rx="2" ry="2.1"/><ellipse cx="95.3" cy="233" rx="2" ry="2.1"/><ellipse cx="2.6" cy="259.7" rx="2" ry="2.1"/><ellipse cx="98.6" cy="366.4" rx="2" ry="2.1"/><ellipse cx="39.5" cy="187.3" rx="2" ry="2.1"/><ellipse cx="8.4" cy="381.5" rx="2" ry="2.1"/></g><g fill="#e1e2e2"><g opacity=".56"><ellipse cx="566.5" cy="3.1" rx="2.6" ry="2.7"/><ellipse cx="630.1" cy="101.6" rx="2.6" ry="2.7"/><ellipse cx="588.1" cy="178.6" rx="2.6" ry="2.7"/><ellipse cx="594.2" cy="174" rx="2" ry="2.1"/><ellipse cx="691.3" cy="85.2" rx="2" ry="2.1"/><ellipse cx="560.7" cy="103.1" rx="2" ry="2.1"/><ellipse cx="467.9" cy="129.7" rx="2" ry="2.1"/><ellipse cx="563.9" cy="236.5" rx="2" ry="2.1"/><ellipse cx="504.9" cy="57.3" rx="2" ry="2.1"/><ellipse cx="473.7" cy="251.5" rx="2" ry="2.1"/><ellipse cx="352" cy="61.7" rx="2.6" ry="2.7"/><ellipse cx="415.6" cy="160.2" rx="2.6" ry="2.7"/><ellipse cx="373.6" cy="237.2" rx="2.6" ry="2.7"/><ellipse cx="379.7" cy="232.6" rx="2" ry="2.1"/><ellipse cx="476.8" cy="143.7" rx="2" ry="2.1"/><ellipse cx="346.1" cy="161.6" rx="2" ry="2.1"/><ellipse cx="253.4" cy="188.3" rx="2" ry="2.1"/><ellipse cx="349.4" cy="295" rx="2" ry="2.1"/><ellipse cx="290.3" cy="115.9" rx="2" ry="2.1"/><ellipse cx="259.2" cy="310.1" rx="2" ry="2.1"/></g><g opacity=".56"><ellipse cx="351.4" cy="92.5" rx="2.6" ry="2.7"/><ellipse cx="357.6" cy="87.9" rx="2" ry="2.1"/><ellipse cx="231.3" cy="43.6" rx="2" ry="2.1"/><ellipse cx="327.3" cy="150.4" rx="2" ry="2.1"/><ellipse cx="237.1" cy="165.4" rx="2" ry="2.1"/><ellipse cx="178.9" cy="74.1" rx="2.6" ry="2.7"/><ellipse cx="136.9" cy="151.1" rx="2.6" ry="2.7"/><ellipse cx="143" cy="146.5" rx="2" ry="2.1"/><ellipse cx="240.1" cy="57.6" rx="2" ry="2.1"/><ellipse cx="109.5" cy="75.5" rx="2" ry="2.1"/><ellipse cx="16.7" cy="102.2" rx="2" ry="2.1"/><ellipse cx="112.7" cy="208.9" rx="2" ry="2.1"/><ellipse cx="53.6" cy="29.8" rx="2" ry="2.1"/><ellipse cx="22.5" cy="224" rx="2" ry="2.1"/></g><g opacity=".56"><ellipse cx="668.8" cy="254.4" rx="2.6" ry="2.7"/><ellipse cx="663" cy="354.4" rx="2" ry="2.1"/><ellipse cx="570.2" cy="381" rx="2" ry="2.1"/><ellipse cx="607.2" cy="308.6" rx="2" ry="2.1"/><ellipse cx="454.3" cy="313" rx="2.6" ry="2.7"/><ellipse cx="517.9" cy="411.5" rx="2.6" ry="2.7"/><ellipse cx="579.1" cy="395" rx="2" ry="2.1"/><ellipse cx="448.4" cy="412.9" rx="2" ry="2.1"/><ellipse cx="392.6" cy="367.2" rx="2" ry="2.1"/></g></g><g fill="#734b94"><ellipse cx="688.1" cy="321.1" rx="2" ry="2.1"/><ellipse cx="572.1" cy="253.1" rx="2.6" ry="2.7"/><ellipse cx="635.7" cy="351.6" rx="2.6" ry="2.7"/><ellipse cx="566.3" cy="353" rx="2" ry="2.1"/><ellipse cx="473.6" cy="379.7" rx="2" ry="2.1"/><ellipse cx="510.5" cy="307.3" rx="2" ry="2.1"/></g></svg>